/* XPM */
static char * close_xpm[] = {
"16 16 19 1",
" 	c None",
".	c #444444",
"+	c #414141",
"@	c #424242",
"#	c #434343",
"$	c #3B3B3B",
"%	c #FFFFFF",
"&	c #3C3C3C",
"*	c #FDFFFE",
"=	c #393B3A",
"-	c #FCFEFD",
";	c #454545",
">	c #F6F8F7",
",	c #F7F9F8",
"'	c #404040",
")	c #383A39",
"!	c #F8FAF9",
"~	c #FBFDFC",
"{	c #FEFFFF",
"................",
"................",
"................",
"....+++..++@#...",
"...+$%&++&%&+...",
"...+%**==*-%+...",
"...+&*---**&+...",
"...;+=->,-='....",
"....@)-!>~=+....",
"...+&*----*&+...",
"...+%**)={*%+...",
"...+&%&@+&%&+...",
"....+++..+++....",
"................",
"................",
"................"};
