/* XPM */
static char * icon_xpm[] = {
"16 16 16 1",
" 	c None",
".	c #444444",
"+	c #434343",
"@	c #454545",
"#	c #414141",
"$	c #3F3F3F",
"%	c #3B3B3B",
"&	c #3C3C3C",
"*	c #3E3E3E",
"=	c #FFFFFF",
"-	c #FEFEFE",
";	c #FDFDFD",
">	c #FDFFFE",
",	c #FCFEFD",
"'	c #3B3D3C",
")	c #3A3C3B",
"................",
"................",
"................",
"................",
"................",
"...+....+..+....",
"........@.......",
"....@...........",
"...+.@......+...",
"...#$%&&&&&*#...",
"...$=------=$...",
"...$=-;>,>>=$...",
"...#$&&'')'$#...",
"................",
"................",
"................"};
