/* XPM */
static char * max_xpm[] = {
"16 16 20 1",
" 	c None",
".	c #444444",
"+	c #404040",
"@	c #3F3F3F",
"#	c #3B3B3B",
"$	c #3D3D3D",
"%	c #3C3C3C",
"&	c #3B3D3C",
"*	c #414141",
"=	c #3E3E3E",
"-	c #FFFFFF",
";	c #FEFEFE",
">	c #FDFFFE",
",	c #FDFDFD",
"'	c #FCFEFD",
")	c #373737",
"!	c #363837",
"~	c #434343",
"{	c #454545",
"]	c #363636",
"................",
"................",
"................",
"...+@#$%#&&@*...",
"...=-;;-;>>-@...",
"...%;,-;->'-%...",
"...%-)%$%&!-#...",
"...%;%..~{#-%...",
"...%-%....$-%...",
"...#-%{...%;%...",
"...$-]%%%%)-$...",
"...=--------=...",
"...*@%%#%%%+*...",
"................",
"................",
"................"};
