/* XPM */
static char * fechar_xpm[] = {
"20 20 92 2",
"  	c None",
". 	c #B1B1B1",
"+ 	c #B0B0B0",
"@ 	c #A5A5A5",
"# 	c #A6A6A6",
"$ 	c #9B9B9B",
"% 	c #979797",
"& 	c #969696",
"* 	c #959595",
"= 	c #909090",
"- 	c #919191",
"; 	c #8C8C8C",
"> 	c #8D8D8D",
", 	c #8F8F8F",
"' 	c #868686",
") 	c #828282",
"! 	c #838383",
"~ 	c #898989",
"{ 	c #989898",
"] 	c #A9A9A9",
"^ 	c #A8A8A8",
"/ 	c #999999",
"( 	c #858585",
"_ 	c #7B7B7B",
": 	c #797979",
"< 	c #7C7C7C",
"[ 	c #888888",
"} 	c #A4A4A4",
"| 	c #BCBCBC",
"1 	c #7F7F7F",
"2 	c #7F7E7F",
"3 	c #717171",
"4 	c #707070",
"5 	c #737373",
"6 	c #818181",
"7 	c #A2A2A2",
"8 	c #747474",
"9 	c #757575",
"0 	c #737374",
"a 	c #808080",
"b 	c #666666",
"c 	c #646464",
"d 	c #BDBDBD",
"e 	c #676767",
"f 	c #6B6C6C",
"g 	c #696A6A",
"h 	c #6A6A69",
"i 	c #6C6C6C",
"j 	c #BEBEBE",
"k 	c #5C5C5C",
"l 	c #5E5E5E",
"m 	c #A0A0A0",
"n 	c #5A5A5A",
"o 	c #FFFFFF",
"p 	c #5D5D5D",
"q 	c #5B5B5B",
"r 	c #515151",
"s 	c #555555",
"t 	c #727272",
"u 	c #ABABAB",
"v 	c #525252",
"w 	c #4E4E4E",
"x 	c #474747",
"y 	c #585858",
"z 	c #4D4D4D",
"A 	c #000000",
"B 	c #010101",
"C 	c #131313",
"D 	c #4C4C4C",
"E 	c #3F3F3F",
"F 	c #353535",
"G 	c #FDFDFD",
"H 	c #161616",
"I 	c #101010",
"J 	c #404040",
"K 	c #333333",
"L 	c #252525",
"M 	c #0A0A0A",
"N 	c #2E2E2E",
"O 	c #262626",
"P 	c #121212",
"Q 	c #040404",
"R 	c #191919",
"S 	c #4A4A4A",
"T 	c #8E8E8E",
"U 	c #B4B4B4",
"V 	c #181818",
"W 	c #242424",
"X 	c #565656",
"Y 	c #0D0D0D",
"Z 	c #272727",
"` 	c #2C2C2C",
". . . . . . . . . . + + + + + + + + + + ",
"@ # # # # # # # # # # # # # # # # # # # ",
"$ $ $ $ $ $ % & * & & * & % $ $ $ $ $ $ ",
"= - - - - ; > > , - - , > > ; - - - - - ",
"' ' ' ' ) ! ~ { ] . . ^ / ~ ! ! ( ( ( ( ",
"_ _ _ : < [ } | * 1 2 * | } [ < : _ _ _ ",
"3 3 4 5 6 7 . 8 8 9 0 8 8 . 7 a 5 4 3 3 ",
"b b c 4 , d e e f g h i e e j , 4 c b b ",
"k k l 3 m ; n n 3 o o 3 n n ; m 4 p q q ",
"r r s t u v w x o o o o x w v u t y z r ",
"A B C D 7 x E F o G G o F E x 7 D H B A ",
"A B I J - ! K L n o o n L K ! - J I B A ",
"A A M N t d L O C P P H O L d t N M A A ",
"A A Q R S T U V V R R V V U T S R Q A A ",
"A A A M W X T j < L L < j T X W M B A A ",
"A A A B Y W S t - 7 7 - t S Z Y B A A A ",
"A A A A B M R ` J D D J ` R M B A A A A ",
"A A A A A A Q M I C C I M Q A A A A A A ",
"A A A A A A A A A A A A A A A A A A A A ",
"A A A A A A A A A A A A A A A A A A A A "};
