/* XPM */
static char * fechar2_xpm[] = {
"20 20 88 1",
" 	c None",
".	c #B1B1B1",
"+	c #B0B0B0",
"@	c #A5A5A5",
"#	c #A6A6A6",
"$	c #9B9B9B",
"%	c #979797",
"&	c #939393",
"*	c #8F8F8F",
"=	c #8E8E8E",
"-	c #909090",
";	c #919191",
">	c #898989",
",	c #818181",
"'	c #767676",
")	c #6A6A6A",
"!	c #636363",
"~	c #868686",
"{	c #7E7E7E",
"]	c #707070",
"^	c #5C5C5C",
"/	c #484848",
"(	c #373737",
"_	c #2D2D2D",
":	c #363636",
"<	c #474747",
"[	c #7D7D7D",
"}	c #858585",
"|	c #7B7B7B",
"1	c #737373",
"2	c #676767",
"3	c #505050",
"4	c #333333",
"5	c #383838",
"6	c #7F7F7F",
"7	c #807F80",
"8	c #717171",
"9	c #6D6D6D",
"0	c #646464",
"a	c #4E4E4E",
"b	c #2F2F2F",
"c	c #565656",
"d	c #8B8B8B",
"e	c #8B8B8C",
"f	c #4D4D4D",
"g	c #666666",
"h	c #5E5E5E",
"i	c #515151",
"j	c #9A9A9A",
"k	c #929393",
"l	c #949595",
"m	c #959594",
"n	c #545454",
"o	c #424242",
"p	c #242424",
"q	c #878787",
"r	c #A9A9A9",
"s	c #9E9D9E",
"t	c #000000",
"u	c #9D9E9E",
"v	c #414141",
"w	c #535353",
"x	c #5B5B5B",
"y	c #494949",
"z	c #1B1B1B",
"A	c #B5B5B5",
"B	c #B7B7B7",
"C	c #B8B8B8",
"D	c #B5B4B4",
"E	c #C1C1C1",
"F	c #C5C6C6",
"G	c #CACAC9",
"H	c #CAC9C9",
"I	c #9C9C9C",
"J	c #D4D4D4",
"K	c #DADADA",
"L	c #BFBFBF",
"M	c #DBDADA",
"N	c #2C2C2C",
"O	c #E2E2E2",
"P	c #ECECEC",
"Q	c #EDEDED",
"R	c #EBEBEB",
"S	c #686868",
"T	c #F2F2F2",
"U	c #2E2E2E",
"V	c #ADADAD",
"W	c #EAEAEA",
"..........++++++++++",
"@###################",
"$$$$$$%&*==*&%$$$$$$",
"-;;;;>,')!!)',>;;;;;",
"~~~~{]^/(__:<^][}}}}",
"|||12345]67]54321|||",
"8890abcdddeddcbf0988",
"gghi:($jklm&j$(:ihgg",
"^^nopqr@sttu@rqpvwxx",
"iiy:zABCttttCBDz:yfi",
"tttttEFGttttHFEttttt",
"tttttIJKLttLMJIttttt",
"tttttNOOPQQROONttttt",
"ttttttSTTTTTTStttttt",
"tttttttUVWWVUttttttt",
"tttttttttttttttttttt",
"tttttttttttttttttttt",
"tttttttttttttttttttt",
"tttttttttttttttttttt",
"tttttttttttttttttttt"};
