/* XPM */
static char * iconbar_xpm[] = {
"70 20 39 1",
" 	c None",
".	c #000000",
"+	c #D3D3D3",
"@	c #D2D2D2",
"#	c #C8C8C8",
"$	c #C7C7C7",
"%	c #BCBCBC",
"&	c #BDBDBD",
"*	c #B1B1B1",
"=	c #B2B2B2",
"-	c #00040D",
";	c #A7A7A7",
">	c #A6A6A6",
",	c #000B21",
"'	c #9C9C9C",
")	c #9B9B9B",
"!	c #000A21",
"~	c #011135",
"{	c #919191",
"]	c #909090",
"^	c #011749",
"/	c #858585",
"(	c #868686",
"_	c #01174A",
":	c #011E5E",
"<	c #011E5D",
"[	c #012472",
"}	c #022472",
"|	c #022B86",
"1	c #032B87",
"2	c #03319B",
"3	c #0337AF",
"4	c #0238B0",
"5	c #033EC4",
"6	c #0344D8",
"7	c #0348E1",
"8	c #0347E1",
"9	c #0447E1",
"0	c #0448E1",
".++@+@+++++++@++++++++@++@@@@+++++@+++@+++++++++@+@+@@+@++@@++++++++@.",
".#$$####$####$##$$####$$##$####$#$#$#####$##$#$$######$$###$##$$#$#$#.",
".%&&%&&%%%%%&&&&%&&%&&%&%%&%&%%&&%%&%%&%&&%%&%&%%&%%&&%%%&%%%&%%%%%&&.",
".**==*==*=*****=====**=**==****=*===*******=**********=**=****=***=**.",
"-;;>>;>>>>;>>>;;>>>;;;;>>>;>>>>;>>>>>>>>>>>;>>>>>>;;>;>;>>>;>>;;;>;>;-",
",')'))''))))))))))'))))))'))))'))))'))))'))))))''))))))))'))))))'')))!",
"~{]]]{]]]]]]{]]]]]]]]]]]]]]]]]{]]]]]]]]]]]]]]]]]{]]{{{]]]]]{]]]]]]]{]~",
"^////////////////////////////////////////////////////(///////////////_",
":....................................................................<",
"[....................................................................}",
"|....................................................................1",
"2....................................................................2",
"3....................................................................4",
"5....................................................................5",
"6....................................................................6",
"7....................................................................8",
"9....................................................................9",
"7....................................................................7",
"0....................................................................0",
"7....................................................................0"};
