/* XPM */
static char * max2_xpm[] = {
"20 20 92 2",
"  	c None",
". 	c #B1B1B1",
"+ 	c #B0B0B0",
"@ 	c #A5A5A5",
"# 	c #A6A6A6",
"$ 	c #9B9B9B",
"% 	c #989898",
"& 	c #959595",
"* 	c #909090",
"= 	c #919191",
"- 	c #8E8E8E",
"; 	c #8B8B8B",
"> 	c #8D8D8D",
", 	c #868686",
"' 	c #838383",
") 	c #858585",
"! 	c #A7A7A7",
"~ 	c #AFAFAF",
"{ 	c #848484",
"] 	c #828282",
"^ 	c #7B7B7B",
"/ 	c #7C7C7C",
"( 	c #8A8A8A",
"_ 	c #A4A4A4",
": 	c #A0A0A0",
"< 	c #9C9C9A",
"[ 	c #9A9A9C",
"} 	c #7D7D7D",
"| 	c #787878",
"1 	c #717171",
"2 	c #747474",
"3 	c #A2A2A2",
"4 	c #8D8D8C",
"5 	c #8C8D8D",
"6 	c #8C8D8C",
"7 	c #848585",
"8 	c #666666",
"9 	c #8F8F8F",
"0 	c #7F7F7F",
"a 	c #FFFFFF",
"b 	c #7F7E7F",
"c 	c #7A7B7B",
"d 	c #979797",
"e 	c #5C5C5C",
"f 	c #595959",
"g 	c #5D5D5D",
"h 	c #727272",
"i 	c #9F9F9F",
"j 	c #626162",
"k 	c #696969",
"l 	c #6C6C6C",
"m 	c #6B6C6C",
"n 	c #6B6B6C",
"o 	c #626262",
"p 	c #585858",
"q 	c #5B5B5B",
"r 	c #515151",
"s 	c #4E4E4E",
"t 	c #575757",
"u 	c #555555",
"v 	c #565656",
"w 	c #000000",
"x 	c #010101",
"y 	c #161616",
"z 	c #4C4C4C",
"A 	c #434343",
"B 	c #444444",
"C 	c #E1E1E1",
"D 	c #101010",
"E 	c #404040",
"F 	c #3A3A3A",
"G 	c #313131",
"H 	c #323232",
"I 	c #0A0A0A",
"J 	c #2E2E2E",
"K 	c #707070",
"L 	c #808080",
"M 	c #1E1E1E",
"N 	c #202020",
"O 	c #1F1F1F",
"P 	c #DFDFDF",
"Q 	c #040404",
"R 	c #191919",
"S 	c #4A4A4A",
"T 	c #8C8C8C",
"U 	c #0C0C0C",
"V 	c #272727",
"W 	c #7A7A7A",
"X 	c #020202",
"Y 	c #0D0D0D",
"Z 	c #2C2C2C",
"` 	c #131313",
". . . . . . . . . . + + + + + + + + + + ",
"@ # # # # # # # # # # # # # # # # # # # ",
"$ $ $ $ $ $ % & & & & & & % $ $ $ $ $ $ ",
"* = = = - ; > > * = = * > > ; - = = = = ",
", , , ' ' ) ; % ! ~ ~ ! % ; { ] ] ) ) ) ",
"^ ^ ^ ^ / ( _ : ( < [ ( : _ ( } ^ | ^ ^ ",
"1 1 1 2 ] 3 ) 4 - 5 > 4 6 7 3 ] 2 1 1 1 ",
"8 8 8 1 9 % ^ 0 0 a a b b c d 9 1 8 8 8 ",
"e f g h i j k l m a a l n k o i h g p q ",
"r s t h ! u v a a a a a a v u ! h t s r ",
"w x y z $ A B C a a a a C A A $ z y x w ",
"w x D E - F G H H a a H H G F - E D x w ",
"w w I J K L M N O P P O O O L h J I w w ",
"w w Q R S T S U U U U U U S - S R Q w w ",
"w w w I V v T W y X X y W T v V I x w w ",
"w w w x Y V S K T $ $ - K S V Y x w w w ",
"w w w w x I R Z E S S E Z R I x w w w w ",
"w w w w w w Q I D ` ` D I Q w w w w w w ",
"w w w w w w w w w x x w w w w w w w w w ",
"w w w w w w w w w w w w w w w w w w w w "};
