/* XPM */
static char * max2_xpm[] = {
"20 20 98 2",
"  	c None",
". 	c #B1B1B1",
"+ 	c #B0B0B0",
"@ 	c #A5A5A5",
"# 	c #A6A6A6",
"$ 	c #9B9B9B",
"% 	c #989898",
"& 	c #929292",
"* 	c #8F8F8F",
"= 	c #8D8D8D",
"- 	c #909090",
"; 	c #919191",
"> 	c #8E8E8E",
", 	c #888888",
"' 	c #818181",
") 	c #767676",
"! 	c #6C6C6C",
"~ 	c #656565",
"{ 	c #868686",
"] 	c #838383",
"^ 	c #7D7D7D",
"/ 	c #707070",
"( 	c #5D5D5D",
"_ 	c #4A4A4A",
": 	c #3B3B3B",
"< 	c #333333",
"[ 	c #393939",
"} 	c #494949",
"| 	c #6F6F6F",
"1 	c #7C7C7C",
"2 	c #828282",
"3 	c #858585",
"4 	c #7B7B7B",
"5 	c #757575",
"6 	c #686868",
"7 	c #505050",
"8 	c #363636",
"9 	c #4B4B4B",
"0 	c #717171",
"a 	c #626261",
"b 	c #616162",
"c 	c #676767",
"d 	c #787878",
"e 	c #6E6E6E",
"f 	c #4F4F4F",
"g 	c #313131",
"h 	c #717170",
"i 	c #707171",
"j 	c #707170",
"k 	c #303030",
"l 	c #666666",
"m 	c #606060",
"n 	c #525252",
"o 	c #383838",
"p 	c #4D4D4D",
"q 	c #808080",
"r 	c #000000",
"s 	c #807F80",
"t 	c #828383",
"u 	c #4E4E4E",
"v 	c #5C5C5C",
"w 	c #595959",
"x 	c #535353",
"y 	c #434343",
"z 	c #272727",
"A 	c #999899",
"B 	c #959595",
"C 	c #939393",
"D 	c #929393",
"E 	c #929293",
"F 	c #999999",
"G 	c #585858",
"H 	c #5B5B5B",
"I 	c #515151",
"J 	c #484848",
"K 	c #1F1F1F",
"L 	c #A9A9A9",
"M 	c #A8A8A8",
"N 	c #BABABA",
"O 	c #030303",
"P 	c #BABBBA",
"Q 	c #BFBFBF",
"R 	c #CDCDCD",
"S 	c #CDCCCC",
"T 	c #CCCCCD",
"U 	c #CCCDCC",
"V 	c #E0E0E0",
"W 	c #DFDFDF",
"X 	c #E0E0DF",
"Y 	c #050505",
"Z 	c #4D4C4D",
"` 	c #9F9F9F",
" .	c #F2F2F2",
"..	c #F2F2F1",
"+.	c #F1F2F2",
"@.	c #F2F1F2",
"#.	c #E3E3E3",
"$.	c #FCFCFC",
". . . . . . . . . . + + + + + + + + + + ",
"@ # # # # # # # # # # # # # # # # # # # ",
"$ $ $ $ $ $ % & * = = * & % $ $ $ $ $ $ ",
"- ; ; ; > , ' ) ! ~ ~ ! ) ' , > ; ; ; ; ",
"{ { { ] ^ / ( _ : < < [ } ( | 1 2 3 3 3 ",
"4 4 4 5 6 7 8 9 0 a b 0 9 8 7 c 5 d 4 4 ",
"0 0 e ~ f g | h / i 0 h j | k f ~ e 0 0 ",
"l l m n o p ] q q r r s s t u o n m l l ",
"v w x y z A B C D r r C E B F z y x G H ",
"I u J 8 K L M r r r r r r M L K 8 J u I ",
"r r r r r N N O r r r r O P N r r r r r ",
"r r r r r Q R R S r r T U R Q r r r r r ",
"r r r r r p V W X Y Y V X W Z r r r r r ",
"r r r r r r `  . ... .+.@.` r r r r r r ",
"r r r r r r r x #.$.$.#.x r r r r r r r ",
"r r r r r r r r r r r r r r r r r r r r ",
"r r r r r r r r r r r r r r r r r r r r ",
"r r r r r r r r r r r r r r r r r r r r ",
"r r r r r r r r r r r r r r r r r r r r ",
"r r r r r r r r r r r r r r r r r r r r "};
