/* XPM */
static char * menutop_xpm[] = {
"250 30 38 1",
" 	c None",
".	c #B6B6B6",
"+	c #B0B0B0",
"@	c #ABABAB",
"#	c #AAAAAA",
"$	c #A6A6A6",
"%	c #A5A5A5",
"&	c #A0A0A0",
"*	c #9A9A9A",
"=	c #949494",
"-	c #8F8F8F",
";	c #909090",
">	c #898989",
",	c #8A8A8A",
"'	c #838383",
")	c #7D7D7D",
"!	c #7C7C7C",
"~	c #777777",
"{	c #787878",
"]	c #717171",
"^	c #727272",
"/	c #656565",
"(	c #646464",
"_	c #434343",
":	c #3C3C3C",
"<	c #3B3B3B",
"[	c #393939",
"}	c #363636",
"|	c #353535",
"1	c #333333",
"2	c #313131",
"3	c #2F2F2F",
"4	c #2D2D2D",
"5	c #2A2A2A",
"6	c #292929",
"7	c #272727",
"8	c #252525",
"9	c #232323",
"..........................................................................................................................................................................................................................................................",
"++++++++++++++++++++++++++++++++++++++++++++++++++++++++++++++++++++++++++++++++++++++++++++++++++++++++++++++++++++++++++++++++++++++++++++++++++++++++++++++++++++++++++++++++++++++++++++++++++++++++++++++++++++++++++++++++++++++++++++++++++++++++++",
"@@#@@#@@@@##@@@#@#@@##@@@@#@#@@@@##@@@##@@@@@#@@@@@@@@@@@@#@#@@@#@@#@@@#@@@@@#@@@@@##@#@#@@###@@###@@###@@#@#@@#@@@#@@@@#@@@@##@@#@@@@#@@@#@@#@@@##@@@@@@@@@#@@@#@@####@@@@##@@##@#@#@@@@@@#@@#@@#@###@@#@@@#@@@@@@@@@@@#@#@@#@#@#@@#@@@@#@@#@@@#@#@@@##@@",
"$$$$$$$$$$$$$$$$$$$$$$$$$$$$$$$$$$$$$$$$$$$$$$$$$$$%$$$$$$$$$$$$$$%$$$$$$$$$$$$$$$$$$$$$$$$$$$$$$$$$$$$$$$$$$$$$$$$$$$$$$$$$$$$$$$$$$$$$$$$%$$$$$$$$$$$$$$$$$$$$$$$$$$$$$$$$$$$$$$$$$$$$$$$$$$$$$$$$$$$$$$$$$$$$%$$$$$$$$$$$$$$%$$$$$$$$$$$$$$$$$$$$$$$$$%",
"&&&&&&&&&&&&&&&&&&&&&&&&&&&&&&&&&&&&&&&&&&&&&&&&&&&&&&&&&&&&&&&&&&&&&&&&&&&&&&&&&&&&&&&&&&&&&&&&&&&&&&&&&&&&&&&&&&&&&&&&&&&&&&&&&&&&&&&&&&&&&&&&&&&&&&&&&&&&&&&&&&&&&&&&&&&&&&&&&&&&&&&&&&&&&&&&&&&&&&&&&&&&&&&&&&&&&&&&&&&&&&&&&&&&&&&&&&&&&&&&&&&&&&&&&&",
"**********************************************************************************************************************************************************************************************************************************************************",
"==========================================================================================================================================================================================================================================================",
"-------------------------------------;---------------------;--;---------------------------------------;--------;--------------;------;---------------------------------------------------------------;------------------------------;---------------------",
">,>>>,>>>,>>>>>,>>,>>,>>>,>>>>>>>>>>>>>,>>>>,>>>,>>>>,>>>>>>>,>>>,>>>>>>>>,>,>>>>>>>>>,,>>>>>,>>>>>>>>>>,>,>,>,,>>>>>>,,,>>>>,>,>,>>>>>>>>>>>>,,,,,>>>,>,>>>>,,>>>>>>>>,>>,>,,,,>>>>,>>>,,>>>>,>>,,>>,,>>>>,>>>>>>>>>>,>>>>>>>,,,,>>>>>>>>,>>>>>>>,,>>>>,>",
"''''''''''''''''''''''''''''''''''''''''''''''''''''''''''''''''''''''''''''''''''''''''''''''''''''''''''''''''''''''''''''''''''''''''''''''''''''''''''''''''''''''''''''''''''''''''''''''''''''''''''''''''''''''''''''''''''''''''''''''''''''''''''",
")))))))!)))))))))))))))))))))!)))))!)))))))))))))!)))))!))))!!))!)))))))))))))!))))))))))!!))!!)!)))))))))!))))))!)))))))))))))))))))))))))))!))))))!)!)))))))))))!))))))))!))))))!)))!)))!)!))))))))!)))))))))!)))))))))))))!)))))))))!!))))!!))))!!)))))",
"~~~~~{~~~~~{~~~~~~~~~~~~{~~~~~~~~~~~{~~~~~~~~~~{{~~~{~~~~{~~~~{~~~~~~~~~~~~~~~~~~~~~{~~~~~~{~~~~~~~~~{~{~~~~~~~{~~~~~~~~~~~{{~~~~~~~~{~~{~~~~~{~{~~~~~~~~~~~~~~{~~~~~~{{{~~~~~{~~~~~~~~~{~~~~~{~~~~~~~{~{~{~~~~~~~~~~~~~{~~~~~~~~~~~~~~~~~{~~~~~~{{~~~~{~~",
"]^^]^^]]]]]]^]]^]]]]]]]]]^]]]^]]^]]]]^]^]^]]^^]]^^^]]^^]]^]^^]^]]^^^]^]]^^^]]]]^]^^]^^^]]]^]]^]^^^^^]]]]^]]]]]]^]]]]]]^]^]]]]^^]^]^^^^^^^^]]]]]]]^]]^]^^]]^]^]]]^]]]]]]]]^]^]^^]]^^^]^]^^]]^]]]^]^^^^^]]^]^^]^]^]]]]]]]]]]]]]]]]^]^^]]^]]]]]]]]^^]]]]^]]^]",
"/(/((/(/////////(/(////(///////(////(((/(/////(/////((/(//((/(//////(//////(//////(//////(/(/(/(/(///////(/(//(///((//(/////(//(////((/(/(//////(///(//(/////(//(/(//(/(//////(//(((/(//(//(/((((//(/(//((///(//((//(((/(/(/////////(//(///((((//(//(//(//",
"__________________________________________________________________________________________________________________________________________________________________________________________________________________________________________________________",
"::::::::::::::::::::::::::::::::::::::::::::::::::::::::::::::::::::::::::::::::::::::::::::::::::::::::::::::::::::::::::::::::::::::::::::::::::::::::::::::::::::::::::::::::::::::::::::::::::::::::::::::::::::::::::::::::::::::::::::::::::::::::::",
"::::::::::::::::::::::::::::::::::::::::::::::::::::::::::::::::::::::::::::::::::::::::::::::::::::::::::::::::::::::::::::::::::::::::::::::::::::::::::::::::::::::::::::::::::::::::::::::::::::::::::::::::::::::::::::::::::::::::::::::::::::::::::",
"<<<<<<<<<<<<<<<<<<<<<<<<<<<<<<<<<<<<<<<<<<<<<<<<<<<<<<<<<<<<<<<<<<<<<<<<<<<<<<<<<<<<<<<<<<<<<<<<<<<<<<<<<<<<<<<<<<<<<<<<<<<<<<<<<<<<<<<<<<<<<<<<<<<<<<<<<<<<<<<<<<<<<<<<<<<<<<<<<<<<<<<<<<<<<<<<<<<<<<<<<<<<<<<<<<<<<<<<<<<<<<<<<<<<<<<<<<<<<<<<<<<<<<<<<<",
"[[[[[[[[[[[[[[[[[[[[[[[[[[[[[[[[[[[[[[[[[[[[[[[[[[[[[[[[[[[[[[[[[[[[[[[[[[[[[[[[[[[[[[[[[[[[[[[[[[[[[[[[[[[[[[[[[[[[[[[[[[[[[[[[[[[[[[[[[[[[[[[[[[[[[[[[[[[[[[[[[[[[[[[[[[[[[[[[[[[[[[[[[[[[[[[[[[[[[[[[[[[[[[[[[[[[[[[[[[[[[[[[[[[[[[[[[[[[[[[[[[[[[[[[[[",
"}}}}}}}}}}}}}}}}}}}}}}}}}}}}}}}}}}}}}}}}}}}}}}}}}}}}}}}}}}}}}}}}}}}}}}}}}}}}}}}}}}}}}}}}}}}}}}}}}}}}}}}}}}}}}}}}}}}}}}}}}}}}}}}}}}}}}}}}}}}}}}}}}}}}}}}}}}}}}}}}}}}}}}}}}}}}}}}}}}}}}}}}}}}}}}}}}}}}}}}}}}}}}}}}}}}}}}}}}}}}}}}}}}}}}}}}}}}}}}}}}}}}}}}}}}",
"||||||||||||||||||||||||||||||||||||||||||||||||||||||||||||||||||||||||||||||||||||||||||||||||||||||||||||||||||||||||||||||||||||||||||||||||||||||||||||||||||||||||||||||||||||||||||||||||||||||||||||||||||||||||||||||||||||||||||||||||||||||||||",
"1111111111111111111111111111111111111111111111111111111111111111111111111111111111111111111111111111111111111111111111111111111111111111111111111111111111111111111111111111111111111111111111111111111111111111111111111111111111111111111111111111111111",
"2222222222222222222222222222222222222222222222222222222222222222222222222222222222222222222222222222222222222222222222222222222222222222222222222222222222222222222222222222222222222222222222222222222222222222222222222222222222222222222222222222222222",
"3333333333333333333333333333333333333333333333333333333333333333333333333333333333333333333333333333333333333333333333333333333333333333333333333333333333333333333333333333333333333333333333333333333333333333333333333333333333333333333333333333333333",
"4444444444444444444444444444444444444444444444444444444444444444444444444444444444444444444444444444444444444444444444444444444444444444444444444444444444444444444444444444444444444444444444444444444444444444444444444444444444444444444444444444444444",
"5555555555555555555555555555555555555555555555555555555555555555555555555555555555555555555555555555555555555555555555555555555555555555555555555555555555555555555555555555555555555555555555555555555555555555555555555555555555555555555555555555555555",
"6666666666666666666666666666666666666666666666666666666666666666666666666666666666666666666666666666666666666666666666666666666666666666666666666666666666666666666666666666666666666666666666666666666666666666666666666666666666666666666666666666666666",
"7777777777777777777777777777777777777777777777777777777777777777777777777777777777777777777777777777777777777777777777777777777777777777777777777777777777777777777777777777777777777777777777777777777777777777777777777777777777777777777777777777777777",
"8888888888888888888888888888888888888888888888888888888888888888888888888888888888888888888888888888888888888888888888888888888888888888888888888888888888888888888888888888888888888888888888888888888888888888888888888888888888888888888888888888888888",
"9999999999999999999999999999999999999999999999999999999999999999999999999999999999999999999999999999999999999999999999999999999999999999999999999999999999999999999999999999999999999999999999999999999999999999999999999999999999999999999999999999999999"};
