/* XPM */
static char * menu_xpm[] = {
"200 30 66 1",
" 	c None",
".	c #B3C3D2",
"+	c #B3C4D2",
"@	c #ABBECE",
"#	c #ABBDCE",
"$	c #A2B6C8",
"%	c #A2B7C8",
"&	c #99AFC2",
"*	c #8FA7BA",
"=	c #8FA6BB",
"-	c #8FA6BA",
";	c #8FA7BB",
">	c #879FB5",
",	c #87A0B5",
"'	c #7E98AE",
")	c #7E97AE",
"!	c #748FA6",
"~	c #6B869F",
"{	c #6B879F",
"]	c #637F98",
"^	c #638098",
"/	c #5A7791",
"(	c #5A7891",
"_	c #466582",
":	c #466682",
"<	c #0A3457",
"[	c #0A3357",
"}	c #0A3356",
"|	c #0A3456",
"1	c #002B4E",
"2	c #002A4E",
"3	c #00284C",
"4	c #00294C",
"5	c #00294B",
"6	c #00284B",
"7	c #002849",
"8	c #002749",
"9	c #002646",
"0	c #002647",
"a	c #002544",
"b	c #002444",
"c	c #002545",
"d	c #002442",
"e	c #002342",
"f	c #00223F",
"g	c #00213D",
"h	c #00203D",
"i	c #001F3A",
"j	c #00203A",
"k	c #001E38",
"l	c #001C35",
"m	c #001D35",
"n	c #001B33",
"o	c #001B32",
"p	c #001C33",
"q	c #001A31",
"r	c #001A30",
"s	c #00192E",
"t	c #00182D",
"u	c #00182E",
"v	c #00172B",
"w	c #001528",
"x	c #001629",
"y	c #001628",
"z	c #001526",
"A	c #001426",
"..++...++..+..+..+..+.+.+..+.+...+++...++..++..+.....+.+..+.+++.+.....++.......+++......++.+.+.+...+............+.+........+......+.++.+++...+.+.+..+++.+++.+...+....+.+...+..+.+...+.+...+....+...+....",
"@#@#@#@#@#@@#@##@#@#@######@#@#@#######@##@##@#@###@#@@##@#@##@@#@#@##@##@@########@@#@#@##########@@@@@@######@@###@@@#@#@#@########@#####@@##@@###@#@@@@@####@@@@###@@###@#######@#@##@###@@@######@#@",
"$$$$$$$$$$$$$$$$$$$$$$$$$$$$$$$$$$$$$$$$$$$$$$$$$$$$$$$$$$$$$$$$$$$$$$$$$$$$$$$%$$$$$%$$$$$$$$$$%$$$$$$$$$$$$$$$$$$$$$$$$$$$$$$$$$$$$$$$$$$$$$$$$$$$$$$$$$$$$$$$$$$$$$$$$$$$$$$$$$$$$$$$$$$$$$$$$$$$$$$$",
"&&&&&&&&&&&&&&&&&&&&&&&&&&&&&&&&&&&&&&&&&&&&&&&&&&&&&&&&&&&&&&&&&&&&&&&&&&&&&&&&&&&&&&&&&&&&&&&&&&&&&&&&&&&&&&&&&&&&&&&&&&&&&&&&&&&&&&&&&&&&&&&&&&&&&&&&&&&&&&&&&&&&&&&&&&&&&&&&&&&&&&&&&&&&&&&&&&&&&&&&",
"*=*-*;*-;;*--****-*------**;-**-***=;--;=*--;--*=--*--=--*-=*;*--=---=***-**--;-;;*---=**--==*-=-*=-*-;--**-**---*--=*--****---*=--==-***-*----*--*---*--;*--*;**-;--*=;****-**-=*--=-**---=;***-*-*-*;*",
">>>>>>>>>,>>>>>>,>>>>>>>>>>>>>>>>>>>>>>>>>>>>>>>>,>,>>>>,>>>,>,>>>>>>>>>>,>>>>>>>>>>>>>,>>>>,>>>>>>>>>>>,>>,>>>>>>>>>>>>>>>>>,>>>>>>>>>>,>>>>>>>>>>>>>>>>>>,>>>>>>>>,>>>>>>,>>>>>>>>>>>>>>>>>,>>>>>>>>>,",
"'))')')'))')''))))))))''''))))))))')))')''')))))))))))))'))))))))))')'))')''))))'')')))''''')''')))''))'''))))''''''))))'))''))))))))')'')))'''''''))'))'''''')))))')))))')))'')))'''')'')')))'')'')))')",
"!!!!!!!!!!!!!!!!!!!!!!!!!!!!!!!!!!!!!!!!!!!!!!!!!!!!!!!!!!!!!!!!!!!!!!!!!!!!!!!!!!!!!!!!!!!!!!!!!!!!!!!!!!!!!!!!!!!!!!!!!!!!!!!!!!!!!!!!!!!!!!!!!!!!!!!!!!!!!!!!!!!!!!!!!!!!!!!!!!!!!!!!!!!!!!!!!!!!!!!!",
"~{{~{{{{{~{{~~~{~{{{{{{{{~~{{{~{{{{~{~~~{~{~~{{{~{{{{~~{{~~~~~{{~{{{{{{{~{{{~{{~~~{~{{{{{{{{{~{{~{{~{~{{{{{{{{~{{~~~{{{{{~~{{{~{{{~{~{~~~{{~{{{{{{{~~{{~{{{{{{{{{{~{~{~~{{{{{{~{{~{~{{{~{{{{{{~~{{{{{~{{",
"]]]]^^^^^]]]]^^^]]]]^]]]^]^^]]^]]]]^]]]]]]]]]]]^^^]]]]]]]]^]]]]^^^]^]^]]]]^]]^^]^]]^]]]]]]^]^]^]]^^^^^]^^]]^]^^]]]]]]]^^]]]^]^^^]^]^]]]^^^]]]]]^]]]]^]]]]^]]]]]]]]]]]]]]^^^]]^]]]^]]]]^]]^^^]^]^]]^]]]]]",
"/(/////(((//////////(///(/////((////(///////////////(//////((/(///////(///(//((////(/(///////////(((////((//////((////(////(//(/////(((////(/////(///(//(///(/////////(//////((/////////(/(//////////(//",
"__:::_____:_:_::___:_::__:__::_:___::_:__::_:__::_____:_____::__________:_:_::_:_______::___:__::_:___:::_::_:____::_:::__:__:_:::_::_::::_____:__:____:::__::_:________:__::____::__:_::__:_____::::___",
"<<[[[[[[[<}<[|[}[[[[}|[[|}[|<<<[[|<<[[<}<|[<<}}[<|<[|[[|<[<[|[|}<[[<}<<<[}|<<<[[[[<[|[<<<[[}[<[|[<[<<|[[[[[[}[[<[[[[[<[<[}[}[}<<[[<<<}[<|[[}<[<[<|[<[<}[[[||[|<<}[<[<[[[}<<[<[<}[[|<[<[[[[}<<[<[[[[<}[<<",
"11222222122112212112121122121212122222122221112222211122222222212222121112212222221222121212121112212122122221222222222221212221212122221221122221212222222222121222121212212222221121122222122222121212",
"34443443443334434443544544343333644344334354533533433333333633543443333334434443334335333333656333334363533434333344334343434446644344434433353634335353364433334433443463333463344443343334333444344444",
"77888887888787788778777787788787887878888888788877788777877877888787887777888887887877788788788878888788778788887877888888888888788788888787888877788888778888888878878778787888788888887788777888787787",
"99999999999999999999999999999999999999999999999999999999999999999999999999999999999999999999999999999999999999999999999999999990999999999999999999999999999999999999999999999999999999999999999999999999",
"aabababcbbabbcacabbbbbabbaabbbbabaaaabbaacbbabaaaaaacbabbcbbbbbababababaaaaaaaabbbbbaababbaabababbbbbabbbbbabbaababbaabacbbbbbaabbbbbaacbacaabbbbcbaabababbbbbabbabbbbababacbababababbabbabbaabbbbbbabbb",
"ddeedeedeedeeedededeedddeeeedddeeddeeeeddeededeedededdedeeeedeededeedddeeedeeeeeddddeeddeeededeeddeeddeeeedddeedddeededeeededeeddedeeededdeeeeedeedeeedeededdeedeedeeeeeeededdeedededddedeeeeeddeeedeeee",
"ffffffffffffffffffffffffffffffffffffffffffffffffffffffffffffffffffffffffffffffffffffffffffffffffffffffffffffffffffffffffffffffffffffffffffffffffffffffffffffffffffffffffffffffffffffffffffffffffffffffff",
"gghhghgghghhhggggggghghghgghhghhghhhgghghgghgghghgggggghhghhggghhgghghgghhhghghghghhgghhggghhgghgghhhhgghghgghghhgghgghggghghgghgghgggghhghgghhhggggghggghgghgggggggghggggggghhhhhggghghgghghhghghggghhg",
"iijijiiiiiiiiijijiiiiiiiiiijijiijiiijiiiiijiiiiiiiiiiiiiiiiiiiiiiiiiiijiiiiijjiiijiiiiiiiiiiiiiijiijiiiiiiiijiiiiiiiiiiiiiiiiiiiiiiiiiiiiiiiiiiiiiiiiiiijjiiiiiiiiiiiiiijiiiiiiiiiiiiiiiiiiiiiiijijjiiij",
"kkkkkkkkkkkkkkkkkkkkkkkkkkkkkkkkkkkkkkkkkkkkkkkkkkkkkkkkkkkkkkkkkkkkkkkkkkkkkkkkkkkkkkkkkkkkkkkkkkkkkkkkkkkkkkkkkkkkkkkkkkkkkkkkkkkkkkkkkkkkkkkkkkkkkkkkkkkkkkkkkkkkkkkkkkkkkkkkkkkkkkkkkkkkkkkkkkkkkkkk",
"lmmmlmlmlllllllmllmlmllmlmmmllmllmmlllmlllllllmmlllllmlllllmllllmllllmmlllllmmmmlmmmlmllmlllmmmlllllmmlllmllmlmmlmmmmllllmllmllmlllmmlmllmmlmlllmlmlllmmlmmllmmmlmlllmlmlllmmmlllmllmlmmllllllmmmlllmmml",
"nopnoonnonopoponoonponpnnnpnnnoponooooopnopnnpnnnonponnooonpnonnnnnnoonppopppnnnopopoonnnoonoppppnoppoonpnopnonoooppopoppoonooonnponoopooooonopooooponnpnnnooonoooppoooopnooopnnooonppopopooononnoppoono",
"qqqqqrrqrqqrqqqqqqqrqqqrqqrqrqqqqqqqqqqqqqrrrqrrqqqqqqqrqqrrqqrqrrqqrrrqqrrqrqrqrrqqqrrrqrqrqqqqqqqqrqqqqqqqrrqqrqqqrrqqqqqrqrqqrqqrqrqqrrrqrqqrqqqrqrqqrqrqrqrqqrqqqqqqqqqrrqrqqrrrqqqrrqrqqqrqqqqrqrrr",
"sstsusttuuttuusttuuusuuustuussutsuuuuststtuuututsuustuusuttuuustuuuutsuuutussutsssuuusttuutuuutttsuusutsuuussuustutusstsstuutuuutsuttuutuutututuusuuussuutusttsusuutttutususuttsussstsssuuusutsusuuuuuut",
"vvvvvvvvvvvvvvvvvvvvvvvvvvvvvvvvvvvvvvvvvvvvvvvvvvvvvvvvvvvvvvvvvvvvvvvvvvvvvvvvvvvvvvvvvvvvvvvvvvvvvvvvvvvvvvvvvvvvvvvvvvvvvvvvvvvvvvvvvvvvvvvvvvvvvvvvvvvvvvvvvvvvvvvvvvvvvvvvvvvvvvvvvvvvvvvvvvvvvvvv",
"wxxyxxxxwxxxxxyxxxxwxxyxxxyxxxxxxxxxxwwxxxxxxyxxywxyxxxxxwxxxxxwxxyxxxxxwxxxxxxxxxyxxxwxwxxxxxxxxxxxxxxwxwxxxxxywwxxxxxwxxxxxyxxxxyxxxxxxwyxxxwxxxxxxwxyxwxxxxxwxxxxxxxxxwxwxxxxxxxyxxxyxxxxxxxxxxxxwxxx",
"zAAzzAAAzzAAAAAAzzzAAAAAAzzAAzAAzzAAAzAzzAAAzAAzAzAAzzAzAzAAAAAAzAzAAzAAAzAAAzAAzzzAzAAzzzAAzzzzzzAzAAAAzAzAAAzAAAAzAAAAAzzAAAzzAAzzAAzAAAzzAAAzAzAzzAAAzAAzAAzAAAAAzzAAzzAzAAAAAAzzAAAzzAzAAzzAAAAzAAzz"};
