/* XPM */
static char * min_xpm[] = {
"20 20 116 2",
"  	c None",
". 	c #B1B1B1",
"+ 	c #B0B0B0",
"@ 	c #A5A5A5",
"# 	c #A6A6A6",
"$ 	c #9B9B9B",
"% 	c #989898",
"& 	c #959595",
"* 	c #979797",
"= 	c #909090",
"- 	c #919191",
"; 	c #8B8B8B",
"> 	c #8C8C8C",
", 	c #8E8E8E",
"' 	c #8D8D8D",
") 	c #868686",
"! 	c #838383",
"~ 	c #848484",
"{ 	c #898989",
"] 	c #939393",
"^ 	c #9F9F9F",
"/ 	c #A9A9A9",
"( 	c #AAAAAA",
"_ 	c #A0A0A0",
": 	c #929292",
"< 	c #888888",
"[ 	c #828282",
"} 	c #858585",
"| 	c #7B7B7B",
"1 	c #787878",
"2 	c #999999",
"3 	c #AEAEAE",
"4 	c #A8A8A8",
"5 	c #9B9A9A",
"6 	c #9A9B9A",
"7 	c #AAA9A9",
"8 	c #B2B2B2",
"9 	c #9D9D9D",
"0 	c #717171",
"a 	c #6E6E6E",
"b 	c #727272",
"c 	c #7A7A7A",
"d 	c #A7A7A7",
"e 	c #8A8A8A",
"f 	c #79797A",
"g 	c #7A7A79",
"h 	c #7A797A",
"i 	c #ACACAC",
"j 	c #7C7C7C",
"k 	c #666666",
"l 	c #636363",
"m 	c #6C6C6C",
"n 	c #686868",
"o 	c #878787",
"p 	c #6D6D6D",
"q 	c #5C5C5C",
"r 	c #6F6F70",
"s 	c #575757",
"t 	c #575656",
"u 	c #565757",
"v 	c #565657",
"w 	c #8F8E8E",
"x 	c #6B6B6B",
"y 	c #5E5E5E",
"z 	c #5B5B5B",
"A 	c #515151",
"B 	c #6A6A6A",
"C 	c #656564",
"D 	c #626262",
"E 	c #E6E6E6",
"F 	c #E4E4E4",
"G 	c #E2E2E2",
"H 	c #E7E7E7",
"I 	c #626362",
"J 	c #666665",
"K 	c #4E4E4E",
"L 	c #000000",
"M 	c #101010",
"N 	c #3C3C3C",
"O 	c #585858",
"P 	c #555555",
"Q 	c #E5E5E5",
"R 	c #595959",
"S 	c #010101",
"T 	c #0A0A0A",
"U 	c #313131",
"V 	c #757575",
"W 	c #747474",
"X 	c #484848",
"Y 	c #232323",
"Z 	c #474747",
"` 	c #0D0D0D",
" .	c #070707",
"..	c #212121",
"+.	c #949494",
"@.	c #383838",
"#.	c #121212",
"$.	c #111112",
"%.	c #121112",
"&.	c #111212",
"*.	c #373737",
"=.	c #131313",
"-.	c #393939",
";.	c #2E2E2E",
">.	c #030303",
",.	c #1C1C1C",
"'.	c #464646",
").	c #6F6F6F",
"!.	c #3A3A3A",
"~.	c #707070",
"{.	c #616161",
"].	c #7F7F7F",
"^.	c #818181",
"/.	c #040404",
"(.	c #242424",
"_.	c #404040",
". . . . . . . . . . + + + + + + + + + + ",
"@ # # # # # # # # # # # # # # # # # # # ",
"$ $ $ $ $ $ % & & * * & & % $ $ $ $ $ $ ",
"= - - - - ; ; > , = = , ' , , , - - - - ",
") ) ) ) ! ~ { ] ^ / ( _ : < ! [ [ } } } ",
"| | | 1 | } 2 3 4 5 6 7 8 9 ) | 1 | | | ",
"0 0 a b c & d e ' f g h ; i $ j b a 0 0 ",
"k k l m ! @ | n n n n n n n ( o p l k k ",
"q q q m , ; r s s t u s t v w ] x y z z ",
"A A s B & C D E F G G E H I J % x s K A ",
"L L M N ! O P E F G G F Q P R } N M S L ",
"L L T U V W X Y Y Y Y Y Y Z W V U ` L L ",
"L L  ...z +.@.#.#.$.%.&.N *.: z .. .L L ",
"L L S =.-.1 e ;.U >.>.>.;.e V -.=.S L L ",
"L L L  .,.'.c 2 ).!.!.~.2 c '.,. .L L L ",
"L L L L  .,.N {.].- - ^.{.N ,. .L L L L ",
"L L L L L /.=.(.*._._.*.(.=./.L L L L L ",
"L L L L L L S /.T ` ` T  .S L L L L L L ",
"L L L L L L L L L L L L L L L L L L L L ",
"L L L L L L L L L L L L L L L L L L L L "};
