/* XPM */
static char * min2_xpm[] = {
"20 20 99 2",
"  	c None",
". 	c #B1B1B1",
"+ 	c #B0B0B0",
"@ 	c #A5A5A5",
"# 	c #A6A6A6",
"$ 	c #9B9B9B",
"% 	c #989898",
"& 	c #959595",
"* 	c #929292",
"= 	c #919191",
"- 	c #909090",
"; 	c #8B8B8B",
"> 	c #858585",
", 	c #7C7C7C",
"' 	c #727272",
") 	c #6C6C6C",
"! 	c #7B7B7B",
"~ 	c #8E8E8E",
"{ 	c #868686",
"] 	c #808080",
"^ 	c #757575",
"/ 	c #656565",
"( 	c #525252",
"_ 	c #414141",
": 	c #383838",
"< 	c #373737",
"[ 	c #3F3F3F",
"} 	c #4F4F4F",
"| 	c #646464",
"1 	c #737373",
"2 	c #7D7D7D",
"3 	c #828282",
"4 	c #585858",
"5 	c #3E3E3E",
"6 	c #343434",
"7 	c #535353",
"8 	c #686767",
"9 	c #676867",
"0 	c #323232",
"a 	c #3C3C3C",
"b 	c #565656",
"c 	c #6A6A6A",
"d 	c #717171",
"e 	c #6E6E6E",
"f 	c #676767",
"g 	c #3A3A3A",
"h 	c #424242",
"i 	c #777877",
"j 	c #787777",
"k 	c #404040",
"l 	c #666666",
"m 	c #606060",
"n 	c #575757",
"o 	c #7E7E7D",
"p 	c #878686",
"q 	c #868786",
"r 	c #878786",
"s 	c #868687",
"t 	c #303030",
"u 	c #5C5C5C",
"v 	c #494949",
"w 	c #878687",
"x 	c #949495",
"y 	c #959494",
"z 	c #949595",
"A 	c #949494",
"B 	c #5E5E5E",
"C 	c #2D2D2D",
"D 	c #474747",
"E 	c #555555",
"F 	c #5B5B5B",
"G 	c #515151",
"H 	c #4B4B4B",
"I 	c #3D3D3D",
"J 	c #262626",
"K 	c #8B8A8B",
"L 	c #000000",
"M 	c #8A8A8B",
"N 	c #252525",
"O 	c #4E4E4E",
"P 	c #8F8F8F",
"Q 	c #989999",
"R 	c #999999",
"S 	c #A3A3A3",
"T 	c #C0C0C0",
"U 	c #161616",
"V 	c #ADADAD",
"W 	c #CFCFCF",
"X 	c #CFCFD0",
"Y 	c #CFD0CF",
"Z 	c #D0CFCF",
"` 	c #393939",
" .	c #B7B8B7",
"..	c #B7B7B7",
"+.	c #DDDDDD",
"@.	c #DDDDDE",
"#.	c #181717",
"$.	c #B2B2B2",
"%.	c #181818",
". . . . . . . . . . + + + + + + + + + + ",
"@ # # # # # # # # # # # # # # # # # # # ",
"$ $ $ $ $ $ % & * = = * & % $ $ $ $ $ $ ",
"- = = = = ; > , ' ) ) ' ! > ; ~ = = = = ",
"{ { { { ] ^ / ( _ : < [ } | 1 2 3 > > > ",
"! ! ! ^ ) 4 5 6 7 8 9 ( 0 a b c ^ ! ! ! ",
"d d e f b g h 1 ' i i j 1 k < 7 f e d d ",
"l l m n k 0 o p q { r q { s t 5 b m l l ",
"u u b v t m w x & y z A y x B C D E F F ",
"G G H I J K - L L L L L L - M N a H O G ",
"L L L L L P Q L L L L L L R P L L L L L ",
"L L L L L m S T T T T T T S m L L L L L ",
"L L L L L U V W X Y Z W V V U L L L L L ",
"L L L L L L `  ...+.@.@. .` L L L L L L ",
"L L L L L L L #.e $.$.e %.L L L L L L L ",
"L L L L L L L L L L L L L L L L L L L L ",
"L L L L L L L L L L L L L L L L L L L L ",
"L L L L L L L L L L L L L L L L L L L L ",
"L L L L L L L L L L L L L L L L L L L L ",
"L L L L L L L L L L L L L L L L L L L L "};
