/* XPM */
static char * slit_xpm[] = {
"30 100 95 2",
"  	c #B9B9B9",
". 	c #BABABA",
"+ 	c #B6B6B6",
"@ 	c #B3B3B3",
"# 	c #B2B2B2",
"$ 	c #B0B0B0",
"% 	c #AFAFAF",
"& 	c #ADADAD",
"* 	c #ACACAC",
"= 	c #A9A9A9",
"- 	c #AAAAAA",
"; 	c #A7A7A7",
"> 	c #A6A6A6",
", 	c #A3A3A3",
"' 	c #A4A4A4",
") 	c #A0A0A0",
"! 	c #A1A1A1",
"~ 	c #9D9D9D",
"{ 	c #9E9E9E",
"] 	c #9A9A9A",
"^ 	c #9B9B9B",
"/ 	c #989898",
"( 	c #979797",
"_ 	c #949494",
": 	c #959595",
"< 	c #919191",
"[ 	c #909090",
"} 	c #8D8D8D",
"| 	c #8E8E8E",
"1 	c #8A8A8A",
"2 	c #8B8B8B",
"3 	c #888888",
"4 	c #878787",
"5 	c #858585",
"6 	c #848484",
"7 	c #828282",
"8 	c #818181",
"9 	c #7F7F7F",
"0 	c #7E7E7E",
"a 	c #7B7B7B",
"b 	c #7C7C7C",
"c 	c #797979",
"d 	c #787878",
"e 	c #767676",
"f 	c #757575",
"g 	c #727272",
"h 	c #737373",
"i 	c #6F6F6F",
"j 	c #6B6B6B",
"k 	c #6C6C6C",
"l 	c #696969",
"m 	c #686868",
"n 	c #666666",
"o 	c #656565",
"p 	c #626262",
"q 	c #636363",
"r 	c #5F5F5F",
"s 	c #606060",
"t 	c #5C5C5C",
"u 	c #5D5D5D",
"v 	c #5A5A5A",
"w 	c #595959",
"x 	c #565656",
"y 	c #575757",
"z 	c #535353",
"A 	c #545454",
"B 	c #505050",
"C 	c #515151",
"D 	c #4E4E4E",
"E 	c #4D4D4D",
"F 	c #4A4A4A",
"G 	c #474747",
"H 	c #464646",
"I 	c #444444",
"J 	c #434343",
"K 	c #414141",
"L 	c #404040",
"M 	c #3D3D3D",
"N 	c #3E3E3E",
"O 	c #3A3A3A",
"P 	c #3B3B3B",
"Q 	c #383838",
"R 	c #373737",
"S 	c #353535",
"T 	c #343434",
"U 	c #323232",
"V 	c #313131",
"W 	c #2F2F2F",
"X 	c #2E2E2E",
"Y 	c #2C2C2C",
"Z 	c #2B2B2B",
"` 	c #282828",
" .	c #252525",
"..	c #262626",
"+.	c #000000",
"      .   .                               .                 ",
"+ + + + + + + + + + + + + + + + + + + + + + + + + + + + + + ",
"@ @ @ @ @ @ @ @ @ @ @ @ @ @ @ @ @ @ @ # @ @ @ @ @ @ @ @ @ @ ",
"$ $ $ $ $ $ $ $ $ $ $ $ $ $ $ $ $ $ $ $ $ % $ % $ $ $ $ $ $ ",
"& & & & & & * & & * & & & & & & & & & & & * * & & * & * & & ",
"= - - - - - - - = - = = - = - - = - = - = - = - = - - - = - ",
"; ; ; > ; ; ; ; ; ; > ; ; > ; ; > > ; > ; ; ; ; > ; > ; ; ; ",
", , ' ' , ' ' ' , ' , , , , , ' , , , , ' , , , ' ' , , , , ",
") ) ! ! ! ! ! ! ! ) ! ) ) ) ) ) ) ) ! ) ! ! ) ) ) ) ) ) ! ) ",
"~ ~ { ~ ~ ~ ~ ~ ~ ~ { ~ { ~ ~ ~ ~ { ~ ~ { ~ ~ { ~ { ~ { { ~ ",
"] ] ] ] ] ] ] ] ^ ] ] ] ] ] ] ] ] ^ ] ^ ] ] ] ] ] ^ ] ] ^ ^ ",
"/ ( ( ( ( ( ( ( ( ( ( ( / ( ( ( / / ( ( ( ( ( ( ( ( ( ( / ( ",
"_ _ _ _ _ _ _ _ _ _ _ _ _ _ _ _ _ _ _ _ _ _ _ : _ _ _ _ _ _ ",
"< < < < < < < < < < < < < < < < < < < < [ < < < < < < < < < ",
"} | | | | | } | | | | | | | | } | | | | | } | | | | | | | | ",
"1 2 1 2 2 2 1 2 2 1 1 2 2 2 2 2 2 2 1 1 2 2 2 2 2 2 1 2 2 2 ",
"3 3 4 3 4 3 3 3 3 4 4 4 3 4 3 3 3 3 3 3 3 3 3 4 4 3 3 3 3 3 ",
"5 5 5 5 5 6 5 6 5 6 5 5 6 6 5 6 6 6 6 6 5 5 5 5 6 5 6 6 5 5 ",
"7 7 7 7 7 8 7 8 7 7 7 7 8 8 8 7 7 8 8 7 7 7 7 7 7 7 8 7 8 8 ",
"9 0 9 0 9 9 0 9 9 9 0 0 0 0 0 9 0 0 0 0 9 9 0 0 0 0 9 9 9 0 ",
"a b a a b a a b b a b a a b a a b a b b b a a a a a a b a a ",
"c c d c d d d d c c c d d c d d d d d d d d d c d d d d d d ",
"e f f e f f f f f f f f f e f f f e f f f e e f e f e f f f ",
"g g h g g g g g g g g g g g g g h g h h g g g g g g g g g g ",
"i i i i i i i i i i i i i i i i i i i i i i i i i i i i i i ",
"j k k k k k k k k k k k k k k k k k k k k k k k k k k k k k ",
"l l m l m l l l m l l m l l l m l l l m l l l l l l l l l l ",
"n n o n o o n n n n n n n n n n n n o n n n n n n o n n n n ",
"p p p q q q p q q q p q q q q q p q q q p q p q q p q p p p ",
"r r s r s r s r s s s s s s r r r s s s r s s s r s s s s s ",
"t t t u u t t t t t t u u t t u u t u u t t u u t u t t t u ",
"v v w v v v v w v v v w w v w w w v v v w v w v w w v w v w ",
"x x y y y x x x x x y y y x x y y x y x x x x x y x x x x x ",
"z z A z z A z z z z A A z z z z z z z z z A A A z z z A z A ",
"B B B B B B B B B B B B B B B B B B C C B B B B B B B C B B ",
"D E E E E E E D E E E E E E E E E E E E E E D E E D E E E E ",
"F F F F F F F F F F F F F F F F F F F F F F F F F F F F F F ",
"G G G G G H G G G G G G G G G G G G G G G G G G G G G G G G ",
"I J I I I J I I I I I I I I I J I I I J I J I I I I I I I J ",
"K L K K L K K K L K K L K K K K K K L K K K L L K K K K K L ",
"M N N N N N M M N N N N N M M M N N N N N N N N N M N N N N ",
"O P P P P O O P P O P O O P P P P P P P O O P O O P O P P P ",
"Q R Q Q R R R Q Q Q R R Q Q Q R Q R R Q R Q R R R R R R R R ",
"S S T T T T T S T T S T S T S T S T T T S T T S T T S T S S ",
"U V V V V U V V V V U V V U V U V V V V U V U U V U V V U V ",
"W X X W X W X X W X X W W X X X X W X X W X X X W X W X X W ",
"Y Z Y Z Z Z Z Z Z Z Z Z Z Z Z Y Y Y Z Z Y Z Y Z Z Z Z Z Y Z ",
"` ` ` ` ` ` ` ` ` ` ` ` ` ` ` ` ` ` ` ` ` ` ` ` ` ` ` ` ` ` ",
" . . . . . . . . . . . . ... . . . . . . . . . . . . . . . .",
"+.+.+.+.+.+.+.+.+.+.+.+.+.+.+.+.+.+.+.+.+.+.+.+.+.+.+.+.+.+.",
"+.+.+.+.+.+.+.+.+.+.+.+.+.+.+.+.+.+.+.+.+.+.+.+.+.+.+.+.+.+.",
"+.+.+.+.+.+.+.+.+.+.+.+.+.+.+.+.+.+.+.+.+.+.+.+.+.+.+.+.+.+.",
"+.+.+.+.+.+.+.+.+.+.+.+.+.+.+.+.+.+.+.+.+.+.+.+.+.+.+.+.+.+.",
"+.+.+.+.+.+.+.+.+.+.+.+.+.+.+.+.+.+.+.+.+.+.+.+.+.+.+.+.+.+.",
"+.+.+.+.+.+.+.+.+.+.+.+.+.+.+.+.+.+.+.+.+.+.+.+.+.+.+.+.+.+.",
"+.+.+.+.+.+.+.+.+.+.+.+.+.+.+.+.+.+.+.+.+.+.+.+.+.+.+.+.+.+.",
"+.+.+.+.+.+.+.+.+.+.+.+.+.+.+.+.+.+.+.+.+.+.+.+.+.+.+.+.+.+.",
"+.+.+.+.+.+.+.+.+.+.+.+.+.+.+.+.+.+.+.+.+.+.+.+.+.+.+.+.+.+.",
"+.+.+.+.+.+.+.+.+.+.+.+.+.+.+.+.+.+.+.+.+.+.+.+.+.+.+.+.+.+.",
"+.+.+.+.+.+.+.+.+.+.+.+.+.+.+.+.+.+.+.+.+.+.+.+.+.+.+.+.+.+.",
"+.+.+.+.+.+.+.+.+.+.+.+.+.+.+.+.+.+.+.+.+.+.+.+.+.+.+.+.+.+.",
"+.+.+.+.+.+.+.+.+.+.+.+.+.+.+.+.+.+.+.+.+.+.+.+.+.+.+.+.+.+.",
"+.+.+.+.+.+.+.+.+.+.+.+.+.+.+.+.+.+.+.+.+.+.+.+.+.+.+.+.+.+.",
"+.+.+.+.+.+.+.+.+.+.+.+.+.+.+.+.+.+.+.+.+.+.+.+.+.+.+.+.+.+.",
"+.+.+.+.+.+.+.+.+.+.+.+.+.+.+.+.+.+.+.+.+.+.+.+.+.+.+.+.+.+.",
"+.+.+.+.+.+.+.+.+.+.+.+.+.+.+.+.+.+.+.+.+.+.+.+.+.+.+.+.+.+.",
"+.+.+.+.+.+.+.+.+.+.+.+.+.+.+.+.+.+.+.+.+.+.+.+.+.+.+.+.+.+.",
"+.+.+.+.+.+.+.+.+.+.+.+.+.+.+.+.+.+.+.+.+.+.+.+.+.+.+.+.+.+.",
"+.+.+.+.+.+.+.+.+.+.+.+.+.+.+.+.+.+.+.+.+.+.+.+.+.+.+.+.+.+.",
"+.+.+.+.+.+.+.+.+.+.+.+.+.+.+.+.+.+.+.+.+.+.+.+.+.+.+.+.+.+.",
"+.+.+.+.+.+.+.+.+.+.+.+.+.+.+.+.+.+.+.+.+.+.+.+.+.+.+.+.+.+.",
"+.+.+.+.+.+.+.+.+.+.+.+.+.+.+.+.+.+.+.+.+.+.+.+.+.+.+.+.+.+.",
"+.+.+.+.+.+.+.+.+.+.+.+.+.+.+.+.+.+.+.+.+.+.+.+.+.+.+.+.+.+.",
"+.+.+.+.+.+.+.+.+.+.+.+.+.+.+.+.+.+.+.+.+.+.+.+.+.+.+.+.+.+.",
"+.+.+.+.+.+.+.+.+.+.+.+.+.+.+.+.+.+.+.+.+.+.+.+.+.+.+.+.+.+.",
"+.+.+.+.+.+.+.+.+.+.+.+.+.+.+.+.+.+.+.+.+.+.+.+.+.+.+.+.+.+.",
"+.+.+.+.+.+.+.+.+.+.+.+.+.+.+.+.+.+.+.+.+.+.+.+.+.+.+.+.+.+.",
"+.+.+.+.+.+.+.+.+.+.+.+.+.+.+.+.+.+.+.+.+.+.+.+.+.+.+.+.+.+.",
"+.+.+.+.+.+.+.+.+.+.+.+.+.+.+.+.+.+.+.+.+.+.+.+.+.+.+.+.+.+.",
"+.+.+.+.+.+.+.+.+.+.+.+.+.+.+.+.+.+.+.+.+.+.+.+.+.+.+.+.+.+.",
"+.+.+.+.+.+.+.+.+.+.+.+.+.+.+.+.+.+.+.+.+.+.+.+.+.+.+.+.+.+.",
"+.+.+.+.+.+.+.+.+.+.+.+.+.+.+.+.+.+.+.+.+.+.+.+.+.+.+.+.+.+.",
"+.+.+.+.+.+.+.+.+.+.+.+.+.+.+.+.+.+.+.+.+.+.+.+.+.+.+.+.+.+.",
"+.+.+.+.+.+.+.+.+.+.+.+.+.+.+.+.+.+.+.+.+.+.+.+.+.+.+.+.+.+.",
"+.+.+.+.+.+.+.+.+.+.+.+.+.+.+.+.+.+.+.+.+.+.+.+.+.+.+.+.+.+.",
"+.+.+.+.+.+.+.+.+.+.+.+.+.+.+.+.+.+.+.+.+.+.+.+.+.+.+.+.+.+.",
"+.+.+.+.+.+.+.+.+.+.+.+.+.+.+.+.+.+.+.+.+.+.+.+.+.+.+.+.+.+.",
"+.+.+.+.+.+.+.+.+.+.+.+.+.+.+.+.+.+.+.+.+.+.+.+.+.+.+.+.+.+.",
"+.+.+.+.+.+.+.+.+.+.+.+.+.+.+.+.+.+.+.+.+.+.+.+.+.+.+.+.+.+.",
"+.+.+.+.+.+.+.+.+.+.+.+.+.+.+.+.+.+.+.+.+.+.+.+.+.+.+.+.+.+.",
"+.+.+.+.+.+.+.+.+.+.+.+.+.+.+.+.+.+.+.+.+.+.+.+.+.+.+.+.+.+.",
"+.+.+.+.+.+.+.+.+.+.+.+.+.+.+.+.+.+.+.+.+.+.+.+.+.+.+.+.+.+.",
"+.+.+.+.+.+.+.+.+.+.+.+.+.+.+.+.+.+.+.+.+.+.+.+.+.+.+.+.+.+.",
"+.+.+.+.+.+.+.+.+.+.+.+.+.+.+.+.+.+.+.+.+.+.+.+.+.+.+.+.+.+.",
"+.+.+.+.+.+.+.+.+.+.+.+.+.+.+.+.+.+.+.+.+.+.+.+.+.+.+.+.+.+.",
"+.+.+.+.+.+.+.+.+.+.+.+.+.+.+.+.+.+.+.+.+.+.+.+.+.+.+.+.+.+.",
"+.+.+.+.+.+.+.+.+.+.+.+.+.+.+.+.+.+.+.+.+.+.+.+.+.+.+.+.+.+.",
"+.+.+.+.+.+.+.+.+.+.+.+.+.+.+.+.+.+.+.+.+.+.+.+.+.+.+.+.+.+.",
"+.+.+.+.+.+.+.+.+.+.+.+.+.+.+.+.+.+.+.+.+.+.+.+.+.+.+.+.+.+.",
"+.+.+.+.+.+.+.+.+.+.+.+.+.+.+.+.+.+.+.+.+.+.+.+.+.+.+.+.+.+."};
