/* XPM */
static char * stick_xpm[] = {
"20 20 103 2",
"  	c None",
". 	c #E2E2E2",
"+ 	c #E3E3E3",
"@ 	c #B3B3B3",
"# 	c #B1B1B1",
"$ 	c #B2B2B2",
"% 	c #DDDDDD",
"& 	c #DEDEDE",
"* 	c #C2C2C2",
"= 	c #A6A6A6",
"- 	c #A7A7A7",
"; 	c #D8D8D8",
"> 	c #D8D9D9",
", 	c #CFCFD0",
"' 	c #9C9C9C",
") 	c #D2D2D2",
"! 	c #D3D3D3",
"~ 	c #D4D4D4",
"{ 	c #9D9D9D",
"] 	c #919191",
"^ 	c #929292",
"/ 	c #CBCCCB",
"( 	c #CCCCCC",
"_ 	c #CDCECD",
": 	c #A3A3A3",
"< 	c #878787",
"[ 	c #868686",
"} 	c #C4C5C5",
"| 	c #C5C6C6",
"1 	c #C6C6C6",
"2 	c #A9A9A9",
"3 	c #7C7C7C",
"4 	c #BDBDBD",
"5 	c #6B6B6B",
"6 	c #707070",
"7 	c #BEBEBE",
"8 	c #BCBCBC",
"9 	c #ABABAB",
"0 	c #727272",
"a 	c #B5B5B5",
"b 	c #131313",
"c 	c #B6B5B6",
"d 	c #AEAEAE",
"e 	c #676767",
"f 	c #ADADAC",
"g 	c #101010",
"h 	c #747473",
"i 	c #9FA0A0",
"j 	c #A8A8A8",
"k 	c #5D5D5D",
"l 	c #5C5C5C",
"m 	c #848484",
"n 	c #0E0E0E",
"o 	c #A4A4A4",
"p 	c #989898",
"q 	c #525252",
"r 	c #696969",
"s 	c #494949",
"t 	c #020202",
"u 	c #5B5B5B",
"v 	c #696A69",
"w 	c #656565",
"x 	c #696A6A",
"y 	c #000000",
"z 	c #626262",
"A 	c #585858",
"B 	c #333333",
"C 	c #636363",
"D 	c #0D0D0D",
"E 	c #303030",
"F 	c #5D5C5D",
"G 	c #5D5D5E",
"H 	c #575656",
"I 	c #555555",
"J 	c #4C4C4C",
"K 	c #0C0C0C",
"L 	c #2D2D2D",
"M 	c #565655",
"N 	c #575756",
"O 	c #494A49",
"P 	c #4F4E4E",
"Q 	c #292828",
"R 	c #2A2A2A",
"S 	c #4F4F4F",
"T 	c #505050",
"U 	c #3B3B3C",
"V 	c #474848",
"W 	c #484949",
"X 	c #2C2B2B",
"Y 	c #414141",
"Z 	c #424242",
"` 	c #434343",
" .	c #1B1B1B",
"..	c #3B3B3A",
"+.	c #3C3C3B",
"@.	c #3C3C3C",
"#.	c #0B0A0A",
"$.	c #343434",
"%.	c #353434",
"&.	c #2D2C2D",
"*.	c #2E2D2D",
"=.	c #2E2E2E",
"-.	c #171717",
". . . . . . . . . . . . . . + @ # # # $ ",
"% % % % % % % % % % % % % % & * = = - = ",
"; ; ; ; ; ; ; ; ; ; ; ; ; ; > , ' ' ' ' ",
") ) ) ) ) ) ) ) ) ) ) ) ) ) ! ~ { ] ^ ] ",
"/ / / / / / / / / / / / / / ( _ : < [ < ",
"} } } } } } } } } } } } } } | 1 2 3 3 3 ",
"4 4 4 5 6 4 4 4 5 6 4 4 4 4 7 8 9 0 0 0 ",
"a a a ' b 0 a a ' b 0 a a a c d 9 e e e ",
"f f f f ] g h f f ] g h f f f i j k l k ",
": : : : : m n 0 : : m n 0 : o p : q q q ",
"r r r r r r s t u r r s t u v w x y y y ",
"z z z z z A n B z z A n B z C z z y y y ",
"l l l l q D E l l q D E l l F G H y y y ",
"I I I J K L I I J K L I I I M N O y y y ",
"P P P Q R P P P Q R P P P P S T U y y y ",
"V V V V V V V V V V V V V V W O X y y y ",
"Y Y Y Y Y Y Y Y Y Y Y Y Y Y Z `  .y y y ",
"............................+.@.#.y y y ",
"$.$.$.$.$.$.$.$.$.$.$.$.$.$.%.&.y y y y ",
"*.*.*.*.*.*.*.*.*.*.*.*.*.*.=.-.y y y y "};
