/* XPM */
static char * tool_xpm[] = {
"30 20 27 1",
" 	c None",
".	c #DCDCDC",
"+	c #D1D1D1",
"@	c #C5C5C5",
"#	c #C6C6C6",
"$	c #BBBBBB",
"%	c #BABABA",
"&	c #AFAFAF",
"*	c #AEAEAE",
"=	c #A4A4A4",
"-	c #A3A3A3",
";	c #989898",
">	c #8D8D8D",
",	c #5D5D5D",
"'	c #5B5B5B",
")	c #575757",
"!	c #565656",
"~	c #525252",
"{	c #4E4E4E",
"]	c #4A4A4A",
"^	c #454545",
"/	c #464646",
"(	c #414141",
"_	c #3D3D3D",
":	c #3C3C3C",
"<	c #383838",
"[	c #343434",
"..............................",
"++++++++++++++++++++++++++++++",
"@@#@#@@@@@@@@#@@##@@@@@@@@@@@@",
"$%%%%$%%%%%%$%%$$%$%%%$$$%$%$$",
"&&*&&&***&&*&&&*&&&&&&****&&&*",
"========-===-===-====-==-=-===",
";;;;;;;;;;;;;;;;;;;;;;;;;;;;;;",
">>>>>>>>>>>>>>>>>>>>>>>>>>>>>>",
",,,,,,,,,,,,,,,,,,,,,,,,,,,,,,",
",,,,,,,,,,,,,,,,,,,,,,,,,,,,,,",
"''''''''''''''''''''''''''''''",
")))))))!))))))!)))))))))))))!)",
"~~~~~~~~~~~~~~~~~~~~~~~~~~~~~~",
"{{{{{{{{{{{{{{{{{{{{{{{{{{{{{{",
"]]]]]]]]]]]]]]]]]]]]]]]]]]]]]]",
"^^^^^^/^^^^^^^/^^^^^^^^/^/^/^^",
"((((((((((((((((((((((((((((((",
"________________:_________:___",
"<<<<<<<<<<<<<<<<<<<<<<<<<<<<<<",
"[[[[[[[[[[[[[[[[[[[[[[[[[[[[[["};
