/* XPM */
static char * wind_xpm[] = {
"20 20 19 1",
" 	c None",
".	c #B1B1B1",
"+	c #B2B2B2",
"@	c #A6A6A6",
"#	c #A7A7A7",
"$	c #9C9C9C",
"%	c #919191",
"&	c #929292",
"*	c #878787",
"=	c #868686",
"-	c #7C7C7C",
";	c #727272",
">	c #676767",
",	c #686868",
"'	c #5C5C5C",
")	c #5D5D5D",
"!	c #525252",
"~	c #515151",
"{	c #000000",
".+++++...+.++.+...++",
"@#@@@#@##@####@#@@##",
"$$$$$$$$$$$$$$$$$$$$",
"%%%%%%%%%%%%%%%&%%%%",
"***=*****==*==*=*==*",
"--------------------",
";;;;;;;;;;;;;;;;;;;;",
">>>,,,,,>,>>>>>>>>>>",
"')')))'''))))')')))'",
"!!!!!~!!!~!~!!!!!!!!",
"{{{{{{{{{{{{{{{{{{{{",
"{{{{{{{{{{{{{{{{{{{{",
"{{{{{{{{{{{{{{{{{{{{",
"{{{{{{{{{{{{{{{{{{{{",
"{{{{{{{{{{{{{{{{{{{{",
"{{{{{{{{{{{{{{{{{{{{",
"{{{{{{{{{{{{{{{{{{{{",
"{{{{{{{{{{{{{{{{{{{{",
"{{{{{{{{{{{{{{{{{{{{",
"{{{{{{{{{{{{{{{{{{{{"};
